<svg xmlns="http://www.w3.org/2000/svg" viewBox="0 0 3134.92 773.14"><defs><style>.cls-1{font-size:549.27px;fill:#27423b;font-family:Colmeak;}.cls-2,.cls-3{fill:#c2b59b;}.cls-2{letter-spacing:-0.12em;}.cls-4{fill:#28443b;}</style></defs><g id="Layer_2" data-name="Layer 2"><g id="Layer_1-2" data-name="Layer 1"><text class="cls-1" transform="translate(847.23 581.83)">Pines<tspan class="cls-2" x="1518.71" y="0">V</tspan><tspan class="cls-3" x="1867.5" y="0">A</tspan></text><path class="cls-4" d="M227,524.8V249.16c-76.18,1-137.62,62.38-137.62,138,0,76.21,62.46,138,139.51,138,3.06,0,6.1-.11,9.12-.31Z"/><path class="cls-4" d="M545.13,249.09h-.71V525.05h.71c77,0,139.5-61.77,139.5-138S622.18,249.09,545.13,249.09Z"/><path class="cls-4" d="M248.24,228.05c0,.24,0,.47,0,.71h276c0-.24,0-.47,0-.71,0-77.25-61.78-139.87-138-139.87S248.24,150.8,248.24,228.05Z"/><path class="cls-4" d="M524.21,546.56c0-.24,0-.47,0-.71h-276c0,.24,0,.47,0,.71,0,77.05,61.77,139.5,138,139.5S524.21,623.61,524.21,546.56Z"/><path class="cls-4" d="M544.25,94.49v133.9H675.32c0-.23,0-.45,0-.68C675.33,156.28,617.25,98,544.25,94.49Z"/><path class="cls-4" d="M93,228.76H226.84V97.68h-.68C154.73,97.68,96.42,155.76,93,228.76Z"/><path class="cls-4" d="M226.57,679.4V545.5H95.49c0,.23,0,.46,0,.68C95.48,617.61,153.56,675.93,226.57,679.4Z"/><path class="cls-4" d="M678.32,545.85H544.42V676.93h.68C616.53,676.94,674.84,618.85,678.32,545.85Z"/><path class="cls-4" d="M703.85,268.75V505.51c40.62-24.12,67.8-68.1,67.8-118.38S744.47,292.87,703.85,268.75Z"/><path class="cls-4" d="M67.8,505.51V268.75C27.18,292.87,0,336.86,0,387.13S27.18,481.39,67.8,505.51Z"/><path class="cls-4" d="M502.09,705.34H265.33c24.12,40.61,68.11,67.8,118.38,67.8S478,746,502.09,705.34Z"/><path class="cls-4" d="M267.84,67.8H504.6C480.48,27.18,436.49,0,386.22,0S292,27.18,267.84,67.8Z"/><path class="cls-3" d="M384.7,249.14c-77,0-139.5,61.77-139.5,138s62.46,138,139.5,138,139.51-61.78,139.51-138S461.75,249.14,384.7,249.14Zm62.85,105.53q-13.31,18.74-26.69,37.4c-10.39,14.54-20.83,29.05-31.16,43.64-3.33,4.69-7.5,7.51-13.42,7.31a12.5,12.5,0,0,1-7.08-2.37q-20.71-15.18-41.37-30.47c-5-3.71-6.63-9-5.43-14.91,1.12-5.53,4.67-9.25,10.22-10.91a16.85,16.85,0,0,1,3.19-.35,14,14,0,0,1,9.8,3.11c8.6,6.38,17.24,12.7,25.8,19.12,1.73,1.3,2.6,1.65,4.14-.54q24.06-34,48.38-67.81c6.11-8.52,17.2-8.89,23.54-.9A14.87,14.87,0,0,1,447.55,354.67Z"/></g></g></svg>