<svg xmlns="http://www.w3.org/2000/svg" viewBox="0 0 2364.83 2369.39"><defs><style>.cls-1{fill:#28443b;}.cls-2{fill:#c2b59b;}</style></defs><g id="Layer_2" data-name="Layer 2"><g id="Layer_1-2" data-name="Layer 1"><path class="cls-1" d="M695.78,1608.33V763.59c-233.44,3.07-421.73,191.17-421.73,422.8,0,233.54,191.41,422.87,427.52,422.87,9.4,0,18.72-.34,28-.93Z"/><path class="cls-1" d="M1670.63,763.36c-.73,0-1.45,0-2.18,0v845.68c.73,0,1.45,0,2.18,0,236.11,0,427.52-189.32,427.52-422.87S1906.74,763.36,1670.63,763.36Z"/><path class="cls-1" d="M760.76,698.88c0,.74,0,1.46,0,2.19h845.69c0-.73,0-1.45,0-2.19,0-236.73-189.33-428.64-422.87-428.64S760.76,462.15,760.76,698.88Z"/><path class="cls-1" d="M1606.5,1675c0-.72,0-1.45,0-2.18H760.78c0,.73,0,1.45,0,2.18,0,236.12,189.32,427.53,422.87,427.53S1606.5,1911.13,1606.5,1675Z"/><path class="cls-1" d="M1667.92,289.59V699.94h401.7c0-.7,0-1.39,0-2.09C2069.65,479,1891.64,300.24,1667.92,289.59Z"/><path class="cls-1" d="M284.85,701.07H695.2V299.37c-.7,0-1.39,0-2.09,0C474.21,299.34,295.5,477.35,284.85,701.07Z"/><path class="cls-1" d="M694.34,2082.12V1671.77H292.64c0,.7,0,1.39,0,2.09C292.61,1892.76,470.62,2071.47,694.34,2082.12Z"/><path class="cls-1" d="M2078.79,1672.83H1668.45v401.71l2.08,0C1889.44,2074.56,2068.15,1896.56,2078.79,1672.83Z"/><path class="cls-1" d="M2157,823.63v725.59c124.48-73.92,207.8-208.73,207.8-362.8S2281.51,897.55,2157,823.63Z"/><path class="cls-1" d="M207.79,1549.22V823.63C83.31,897.55,0,1032.35,0,1186.42S83.31,1475.3,207.79,1549.22Z"/><path class="cls-1" d="M1538.74,2161.59H813.15c73.92,124.48,208.72,207.79,362.79,207.79S1464.82,2286.08,1538.74,2161.59Z"/><path class="cls-1" d="M820.83,207.79h725.59C1472.5,83.31,1337.7,0,1183.63,0S894.75,83.31,820.83,207.79Z"/><path class="cls-2" d="M1179,763.51c-236.12,0-427.53,189.33-427.53,422.87S942.86,1609.26,1179,1609.26s427.52-189.33,427.52-422.88S1415.09,763.51,1179,763.51Zm192.59,323.43q-40.77,57.39-81.8,114.61c-31.84,44.57-63.83,89-95.5,133.74-10.18,14.37-23,23-41.1,22.39a38.22,38.22,0,0,1-21.7-7.26q-63.51-46.53-126.78-93.36c-15.28-11.37-20.33-27.67-16.66-45.71,3.44-16.94,14.32-28.35,31.34-33.44,4-1.2,8-.71,9.75-1.07,12.83-.79,21.75,3.37,30.05,9.54,26.34,19.56,52.83,38.92,79.07,58.61,5.3,4,8,5,12.7-1.66q73.69-104.22,148.26-207.83c18.71-26.1,52.71-27.24,72.13-2.74C1383.21,1047.75,1383.47,1070.19,1371.57,1086.94Z"/></g></g></svg>